<svg xmlns="http://www.w3.org/2000/svg" width="26" height="28" viewBox="0 0 26 28">
  <metadata><?xpacket begin="﻿" id="W5M0MpCehiHzreSzNTczkc9d"?>
<x:xmpmeta xmlns:x="adobe:ns:meta/" x:xmptk="Adobe XMP Core 5.6-c138 79.159824, 2016/09/14-01:09:01        ">
   <rdf:RDF xmlns:rdf="http://www.w3.org/1999/02/22-rdf-syntax-ns#">
      <rdf:Description rdf:about=""/>
   </rdf:RDF>
</x:xmpmeta>
                                                                                                    
                                                                                                    
                                                                                                    
                                                                                                    
                                                                                                    
                                                                                                    
                                                                                                    
                                                                                                    
                                                                                                    
                                                                                                    
                                                                                                    
                                                                                                    
                                                                                                    
                                                                                                    
                                                                                                    
                                                                                                    
                                                                                                    
                                                                                                    
                                                                                                    
                                                                                                    
                           
<?xpacket end="w"?></metadata>
<defs>
    <style>
      .cls-1 {
        fill: #333;
        fill-rule: evenodd;
      }
    </style>
  </defs>
  <path id="bag" class="cls-1" d="M1070.47,93h-22.94a2.268,2.268,0,0,1-1.23-.345,2.347,2.347,0,0,1-.3-1.21L1048,71a1.019,1.019,0,0,1,1-1h20a1.019,1.019,0,0,1,1,1l2,20.444A1.286,1.286,0,0,1,1070.47,93M1048,91h22l-2-19h-18Zm15-17V71c0-2.044-.97-4-4-4s-4,1.913-4,4v3c0,0.969-2,.969-2,0V71c0-3.261,1.95-6,5.98-6a5.632,5.632,0,0,1,6.02,6v3C1065,74.969,1063,74.969,1063,74Z" transform="translate(-1046 -65)"/>
</svg>
